#N canvas 779 564 470 337 12;
#X obj 62 13 inlet~;
#X obj 100 292 outlet~;
#X obj 97 68 delwrite~ \$0dly 2000;
#X obj 159 177 delread4~ \$0dly;
#X obj 324 174 atoms/limit~ 94 8;
#N canvas 736 435 450 300 filtering 0;
#X obj 81 32 inlet~;
#X obj 81 72 hip~;
#X obj 81 97 hip~;
#X obj 81 202 outlet~;
#X obj 188 102 r \$0lop;
#X obj 188 77 r \$0hip;
#X obj 81 122 lop~ 21000;
#X obj 81 147 lop~ 21000;
#X connect 0 0 1 0;
#X connect 1 0 2 0;
#X connect 2 0 6 0;
#X connect 4 0 6 1;
#X connect 4 0 7 1;
#X connect 5 0 1 1;
#X connect 5 0 2 1;
#X connect 6 0 7 0;
#X connect 7 0 3 0;
#X restore 159 202 pd filtering;
#X obj 62 237 atoms/vol~ \$0dry 1, f 10;
#X obj 159 236 atoms/vol~ \$0level 0, f 10;
#X obj 101 39 atoms/broadcast \$0;
#X obj 159 101 r \$0time;
#X obj 159 126 sig~;
#N canvas 413 457 535 278 modulation 0;
#X obj 68 173 atoms/modulate~;
#X obj 170 87 r \$0lfo;
#X obj 68 117 inlet~;
#X obj 68 198 outlet~;
#X obj 315 111 r \$0mod.depth;
#X obj 315 136 t f f, f 6;
#X obj 315 188 pack, f 6;
#X msg 315 213 range \$1 \$2;
#X obj 315 161 * -1;
#X obj 315 41 r \$0mod.rate;
#X msg 315 66 rate \$1;
#X obj 170 144 atoms/lfo~ 1 0 0 2;
#X connect 0 0 3 0;
#X connect 1 0 11 0;
#X connect 2 0 0 0;
#X connect 4 0 5 0;
#X connect 5 0 8 0;
#X connect 5 1 6 1;
#X connect 6 0 7 0;
#X connect 7 0 11 0;
#X connect 8 0 6 0;
#X connect 9 0 10 0;
#X connect 10 0 11 0;
#X connect 11 0 0 1;
#X restore 159 151 pd modulation;
#X obj 324 133 atoms/vol~ \$0fdbk 0, f 10;
#X connect 0 0 2 0;
#X connect 0 0 6 0;
#X connect 0 1 8 0;
#X connect 3 0 5 0;
#X connect 4 0 2 0;
#X connect 5 0 7 0;
#X connect 5 0 12 0;
#X connect 6 0 1 0;
#X connect 7 0 1 0;
#X connect 9 0 10 0;
#X connect 10 0 11 0;
#X connect 11 0 3 0;
#X connect 12 0 4 0;
