#N canvas 737 373 712 559 12;
#X obj 477 361 table loop;
#X obj 130 232 tabwrite~ loop;
#X obj 117 359 phasor~;
#X obj 117 384 *~;
#X obj 117 409 +~ 1;
#X obj 117 439 tabread4~ loop;
#X obj 180 384 - 2;
#X obj 180 409 change;
#X msg 173 197 stop;
#X obj 130 127 metro-sync;
#X obj 110 293 timer;
#X obj 110 321 expr 1000 / $f1;
#X msg 163 294 0;
#X obj 485 173 block~;
#X obj 108 74 inlet;
#X obj 261 30 inlet;
#X obj 117 497 outlet~;
#X obj 57 111 inlet~;
#X msg 477 228 resize \$1;
#X obj 477 313 s loop;
#X msg 490 284 const 0;
#X obj 180 359 * 24;
#X obj 586 71 loadbang;
#X obj 586 123 samplerate~;
#X obj 477 203 * 30;
#X text 493 71 desired SR;
#X obj 586 97 bng 20 250 50 0 empty empty empty 0 -10 0 12 #fcfcfc #000000 #000000;
#X msg 485 148 set 64 1 \$1;
#X obj 410 244 / 1000;
#X obj 163 70 r \$0bpm;
#X obj 261 55 atoms/broadcast \$0;
#X obj 443 70 r \$0sr;
#X obj 197 100 r \$0beats;
#X obj 197 163 outlet;
#X text 509 203 s max;
#X obj 490 255 r \$0clear;
#X obj 485 108 expr 1 / ($f2 / $f1), f 11;
#X obj 336 356 *~;
#X obj 374 306 r \$0dub;
#X msg 374 331 \$1 10;
#X obj 374 356 line~;
#X connect 2 0 3 0;
#X connect 3 0 4 0;
#X connect 4 0 5 0;
#X connect 5 0 16 0;
#X connect 5 0 37 0;
#X connect 6 0 7 0;
#X connect 7 0 3 1;
#X connect 8 0 1 0;
#X connect 9 0 1 0;
#X connect 9 0 10 0;
#X connect 9 1 8 0;
#X connect 9 1 10 1;
#X connect 9 1 12 0;
#X connect 9 2 33 0;
#X connect 10 0 11 0;
#X connect 10 0 21 0;
#X connect 11 0 2 0;
#X connect 12 0 2 1;
#X connect 14 0 9 0;
#X connect 15 0 30 0;
#X connect 17 0 1 0;
#X connect 18 0 19 0;
#X connect 20 0 19 0;
#X connect 21 0 6 0;
#X connect 22 0 26 0;
#X connect 23 0 36 1;
#X connect 24 0 18 0;
#X connect 26 0 23 0;
#X connect 27 0 13 0;
#X connect 28 0 21 1;
#X connect 29 0 9 1;
#X connect 31 0 24 0;
#X connect 31 0 28 0;
#X connect 31 0 36 0;
#X connect 32 0 9 2;
#X connect 35 0 20 0;
#X connect 36 0 27 0;
#X connect 37 0 1 0;
#X connect 38 0 39 0;
#X connect 39 0 40 0;
#X connect 40 0 37 1;
