#N canvas 1011 112 489 600 12;
#X obj 27 28 inlet~;
#X obj 46 271 /;
#X floatatom 46 296 5 0 0 0 - - - 0;
#X obj 45 547 outlet~;
#X obj 221 155 bng 20 250 50 0 empty empty empty 0 -10 0 12 #fcfcfc #000000 #000000;
#X obj 46 352 *~;
#X obj 318 297 * 96;
#X msg 321 493 const 0;
#X obj 264 350 del;
#X obj 240 435 line~;
#X msg 221 375 0;
#X msg 264 375 1;
#X obj 46 324 phasor~;
#X obj 46 454 *~;
#X msg 46 246 1000 \$1;
#X obj 46 514 lop~ 7000;
#X msg 240 410 \$1 50;
#X obj 46 486 hip~ 150;
#X obj 282 65 loadbang;
#X obj 343 246 samplerate~;
#X obj 343 271 / 1000;
#X obj 133 83 atoms/broadcast \$0;
#X obj 66 56 route bang;
#X obj 130 487 r \$0hip;
#X obj 130 512 r \$0lop;
#X obj 321 465 r \$0clear;
#X obj 282 226 t f b;
#X msg 282 91 args;
#X obj 282 116 pdcontrol;
#X obj 282 141 route float;
#X obj 360 49 table \$0loop;
#X obj 46 408 tabread4~ \$0loop;
#X obj 321 518 s \$0loop;
#X obj 318 323 array size \$0loop;
#X msg 356 168 1000;
#X obj 356 206 r \$0length;
#X obj 26 175 tabwrite~ \$0loop;
#X msg 101 295 0;
#X obj 84 352 - 2;
#X obj 46 377 +~ 1;
#X connect 0 0 36 0;
#X connect 0 1 22 0;
#X connect 1 0 2 0;
#X connect 2 0 12 0;
#X connect 4 0 8 0;
#X connect 4 0 10 0;
#X connect 4 0 36 0;
#X connect 5 0 39 0;
#X connect 6 0 33 0;
#X connect 6 0 38 0;
#X connect 7 0 32 0;
#X connect 8 0 11 0;
#X connect 8 0 37 0;
#X connect 9 0 13 1;
#X connect 10 0 16 0;
#X connect 11 0 16 0;
#X connect 12 0 5 0;
#X connect 13 0 17 0;
#X connect 14 0 1 0;
#X connect 15 0 3 0;
#X connect 16 0 9 0;
#X connect 17 0 15 0;
#X connect 18 0 27 0;
#X connect 19 0 20 0;
#X connect 20 0 6 1;
#X connect 22 0 4 0;
#X connect 22 1 21 0;
#X connect 23 0 17 1;
#X connect 24 0 15 1;
#X connect 25 0 7 0;
#X connect 26 0 6 0;
#X connect 26 0 8 1;
#X connect 26 0 14 0;
#X connect 26 1 19 0;
#X connect 27 0 28 0;
#X connect 28 0 29 0;
#X connect 29 0 26 0;
#X connect 29 1 34 0;
#X connect 31 0 13 0;
#X connect 34 0 26 0;
#X connect 35 0 26 0;
#X connect 37 0 12 1;
#X connect 38 0 5 1;
#X connect 39 0 31 0;
