#N canvas 736 399 539 497 12;
#X obj 121 153 table mg-1;
#X obj 121 173 table mg-2;
#X obj 121 193 table mg-3;
#X obj 121 213 table mg-4;
#N canvas 739 507 450 384 mono-samplr 0;
#X obj 146 291 tabread4~ mg-1;
#X obj 146 316 outlet~;
#X obj 146 266 vline~;
#X msg 146 239 0 \, \$1 \$2;
#X obj 146 164 t f f;
#X obj 146 214 pack, f 5;
#X obj 146 64 inlet;
#X obj 146 89 f;
#X obj 146 114 t b f;
#X msg 253 119 symbol mg-\$1;
#X obj 146 139 array size;
#X msg 253 144 set \$1;
#X obj 178 189 / 44.1;
#X connect 0 0 1 0;
#X connect 2 0 0 0;
#X connect 3 0 2 0;
#X connect 4 0 5 0;
#X connect 4 1 12 0;
#X connect 5 0 3 0;
#X connect 6 0 7 0;
#X connect 7 0 8 0;
#X connect 8 0 10 0;
#X connect 8 1 9 0;
#X connect 9 0 10 1;
#X connect 9 0 11 0;
#X connect 10 0 4 0;
#X connect 11 0 0 0;
#X connect 12 0 5 1;
#X restore 235 177 pd mono-samplr;
#X msg 119 322 4;
#X obj 119 347 atoms/num-seq;
#X obj 119 372 + 1;
#X obj 119 448 soundfiler;
#X obj 119 397 pack f s;
#X obj 119 296 t b s, f 8;
#X msg 119 423 read -resize \$2/mg-\$1.wav mg-\$1;
#X obj 235 28 r seq-buttons;
#X obj 235 87 moses 4;
#X obj 235 112 + 1;
#X obj 235 57 stripnote;
#X obj 384 157 + 1;
#X obj 384 132 == 3;
#X text 375 108 duck on 3;
#X obj 235 295 +~;
#X obj 235 334 output~;
#X obj 413 271 hsl 40 15 -100 0 0 0 empty empty empty -2 -10 0 12 #fcfcfc #000000 #000000 0 1;
#X obj 384 183 * -18;
#X floatatom 384 233 5 0 0 0 - - - 0;
#X obj 384 208 + 12;
#X obj 253 242 atoms/vol~ _ -4;
#X obj 253 268 atoms/vol~ kp -100;
#X obj 102 245 bng 20 250 50 0 empty empty empty 0 -10 0 12 #fcfcfc #000000 #000000;
#X obj 102 270 else/dir;
#X obj 253 215 reson~;
#X connect 4 0 19 0;
#X connect 4 0 29 0;
#X connect 5 0 6 0;
#X connect 6 0 7 0;
#X connect 7 0 9 0;
#X connect 9 0 11 0;
#X connect 10 0 5 0;
#X connect 10 1 9 1;
#X connect 11 0 8 0;
#X connect 12 0 15 0;
#X connect 13 0 14 0;
#X connect 14 0 4 0;
#X connect 14 0 17 0;
#X connect 15 0 13 0;
#X connect 16 0 22 0;
#X connect 17 0 16 0;
#X connect 19 0 20 0;
#X connect 21 0 26 1;
#X connect 22 0 24 0;
#X connect 24 0 23 0;
#X connect 24 0 25 1;
#X connect 25 0 26 0;
#X connect 26 0 19 1;
#X connect 27 0 28 0;
#X connect 28 1 10 0;
#X connect 29 0 25 0;
