#N canvas 973 1116 946 955 12;
#X obj 52 26 notein 1;
#X obj 52 103 pack, f 8;
#X obj 89 323 delread4~ vib;
#X obj 89 244 delwrite~ vib 100;
#X obj 64 588 atoms/IR~;
#X obj 327 199 table wavetable 2051;
#X obj 52 533 *~ 1;
#X obj 89 298 atoms/lfo~ 8 2 3 2;
#X obj 52 454 else/highpass~ 4147.56;
#X obj 52 505 else/lowpass~ 10929.8;
#X obj 52 374 else/xfade~;
#X obj 52 184 clone -s 1 6 wvtbl-voice~;
#X obj 389 252 table bell;
#X obj 310 252 soundfiler;
#X obj 146 374 sig~ 1;
#X msg 169 40 \; panic bang \;;
#X msg 140 128 clear;
#X obj 140 104 r panic;
#X msg 377 330 srate \$1;
#X msg 310 330 size \$1;
#X obj 335 276 bng 20 250 50 0 empty empty empty 0 -10 0 12 #fcfcfc #000000 #000000;
#X obj 310 304 f;
#X obj 377 305 f;
#X obj 52 158 pack f f f;
#X obj 52 131 poly 6 1;
#X obj 329 623 else/lowpass~ 2600;
#X obj 293 28 loadbang;
#X obj 310 359 s tabreader;
#X obj 89 271 r wvtbl-vib;
#X obj 202 402 r wvtbl-drive;
#X obj 146 349 r wvtbl-vib-mix;
#X obj 127 428 r wvtbl-hpf;
#X obj 124 479 r wvtbl-lpf;
#X obj 390 597 r smp-synth-lpf;
#X obj 293 79 else/dir;
#X msg 293 53 dir;
#X msg 310 226 read -resize \$1/bell.wav bell;
#X obj 73 559 r ir-path;
#X obj 52 211 *~ 1;
#X msg 326 111 \; tabreader env auto 1 \; tabreader env atk 80 \; wavetable read \$1/wavetables/only_you \; ir-path symbol \$1/Block_Inside.wav \;;
#X obj 783 223 atoms/receive-osc;
#X obj 783 250 patch_handler;
#X obj 630 59 nbx 2 30 -1e+37 1e+37 0 0 empty current-page PAGE 0 -10 0 24 #fcfcfc #000000 #000000 0 256;
#X listbox 641 98 28 0 0 0 - observer - 16;
#X obj 638 158 atoms/send-osc navigate;
#X msg 630 130 portis_page_\$1;
#X obj 64 618 atoms/vol~ wvtbl-verb -14;
#X obj 52 649 atoms/vol~ organ -10;
#X obj 329 651 atoms/vol~ bells -2;
#X obj 379 393 r seq-buttons;
#X obj 630 260 atoms/send-osc main-page 7778, f 14;
#X obj 640 184 loadbang;
#X obj 640 209 del 200;
#X msg 640 234 portis_page_1;
#X obj 105 52 > 0;
#X obj 105 77 * 100;
#X obj 783 277 atoms/send-osc param;
#X obj 631 312 r nav-buttons;
#X obj 329 569 tabreader~ bell;
#X msg 329 543 50 10;
#X obj 661 710 atoms/vol~ vox 0;
#X obj 661 650 delay~;
#X obj 526 573 reverbs/reverb282~ 4000, f 18;
#X obj 578 624 hsl 70 16 -100 0 0 0 empty empty empty -2 -10 0 12 #fcfcfc #000000 #000000 0 1;
#X obj 661 681 hip~ 200;
#X msg 729 543 level -100 \, fdbk -50;
#X obj 526 547 loop~;
#X obj 661 403 adc~ 1;
#X obj 526 644 atoms/vol~ loop 0;
#X obj 737 576 loadbang;
#X msg 737 601 dry -100 \, lop 12000 \, time 400, f 10;
#X msg 729 495 level 0 \, fdbk -1;
#X obj 729 463 sel 1 0;
#X obj 526 413 sel 1 0;
#X msg 549 443 clear;
#X listbox 631 337 20 0 0 0 - - - 0;
#X obj 354 702 adc~ 2;
#X obj 661 767 else/xgate~ 2 20 1;
#X obj 672 738 r voice-out;
#X obj 52 402 atoms/overdrive~ -6;
#X obj 379 418 stripnote;
#X obj 379 445 sel 0 1 2;
#X obj 33 903 atoms/send-osc seq-lights;
#X obj 152 878 table seq-lights 8;
#X obj 33 853 array get seq-lights;
#X obj 33 878 atoms/8bit2byte;
#X obj 383 487 tgl 20 0 empty empty empty 0 -10 0 12 #fcfcfc #000000 #000000 0 1;
#X obj 383 512 s vox-loop;
#X obj 414 487 tgl 20 0 empty empty empty 0 -10 0 12 #fcfcfc #000000 #000000 0 1;
#X obj 526 382 r vox-loop;
#X obj 729 435 r vox-delay;
#X obj 414 539 s vox-delay;
#X obj 33 761 t b f b;
#X obj 143 736 r vox-delay;
#X obj 143 761 t b f b;
#X obj 91 827 tabwrite seq-lights;
#X msg 221 799 2;
#X msg 184 800 1;
#X obj 33 736 r vox-loop;
#X obj 329 747 *~ 1, f 6;
#X obj 315 789 dac~ 1 2;
#X obj 722 800 dac~ 3;
#X connect 0 0 1 0;
#X connect 0 1 54 0;
#X connect 1 0 24 0;
#X connect 2 0 10 1;
#X connect 4 0 46 0;
#X connect 6 0 4 0;
#X connect 6 0 47 0;
#X connect 7 0 2 0;
#X connect 8 0 9 0;
#X connect 9 0 6 0;
#X connect 10 0 79 0;
#X connect 11 0 38 0;
#X connect 13 0 21 0;
#X connect 13 1 22 0;
#X connect 14 0 10 2;
#X connect 16 0 24 0;
#X connect 17 0 16 0;
#X connect 18 0 27 0;
#X connect 19 0 27 0;
#X connect 20 0 21 0;
#X connect 20 0 22 0;
#X connect 21 0 19 0;
#X connect 22 0 18 0;
#X connect 23 0 11 0;
#X connect 24 0 23 0;
#X connect 24 1 23 1;
#X connect 24 2 23 2;
#X connect 25 0 48 0;
#X connect 26 0 35 0;
#X connect 28 0 7 0;
#X connect 29 0 79 1;
#X connect 30 0 14 0;
#X connect 31 0 8 1;
#X connect 32 0 9 1;
#X connect 33 0 25 1;
#X connect 34 1 39 0;
#X connect 34 1 36 0;
#X connect 35 0 34 0;
#X connect 36 0 13 0;
#X connect 37 0 4 0;
#X connect 38 0 10 0;
#X connect 38 0 3 0;
#X connect 40 0 41 0;
#X connect 41 0 56 0;
#X connect 42 0 45 0;
#X connect 45 0 44 0;
#X connect 45 0 50 0;
#X connect 46 0 47 0;
#X connect 47 0 99 0;
#X connect 48 0 99 0;
#X connect 49 0 80 0;
#X connect 51 0 52 0;
#X connect 52 0 53 0;
#X connect 53 0 50 0;
#X connect 54 0 55 0;
#X connect 55 0 1 1;
#X connect 57 0 75 0;
#X connect 58 0 25 0;
#X connect 59 0 58 0;
#X connect 60 0 77 0;
#X connect 61 0 64 0;
#X connect 62 0 68 0;
#X connect 63 0 68 1;
#X connect 64 0 60 0;
#X connect 65 0 61 0;
#X connect 66 0 62 0;
#X connect 67 0 61 0;
#X connect 67 0 66 0;
#X connect 68 0 64 0;
#X connect 69 0 70 0;
#X connect 70 0 61 0;
#X connect 71 0 61 0;
#X connect 72 0 71 0;
#X connect 72 1 65 0;
#X connect 73 0 66 0;
#X connect 73 1 74 0;
#X connect 74 0 66 0;
#X connect 76 0 99 0;
#X connect 77 0 99 0;
#X connect 77 1 101 0;
#X connect 78 0 77 0;
#X connect 79 0 8 0;
#X connect 80 0 81 0;
#X connect 81 0 59 0;
#X connect 81 1 86 0;
#X connect 81 2 88 0;
#X connect 84 0 85 0;
#X connect 85 0 82 0;
#X connect 86 0 87 0;
#X connect 88 0 91 0;
#X connect 89 0 73 0;
#X connect 90 0 72 0;
#X connect 92 0 84 0;
#X connect 92 1 95 0;
#X connect 92 2 97 0;
#X connect 93 0 94 0;
#X connect 94 0 84 0;
#X connect 94 1 95 0;
#X connect 94 2 96 0;
#X connect 96 0 95 1;
#X connect 97 0 95 1;
#X connect 98 0 92 0;
#X connect 99 0 100 0;
#X connect 99 0 100 1;
