#N canvas 973 89 946 956 12;
#X obj 52 26 notein 1;
#X obj 309 544 pack f f f;
#X obj 52 103 pack, f 8;
#X obj 89 323 delread4~ vib;
#X obj 89 244 delwrite~ vib 100;
#X obj 64 588 atoms/IR~;
#X obj 327 199 table wavetable 2051;
#X obj 52 533 *~ 1;
#X obj 89 298 atoms/lfo~ 8 2 3 2;
#X obj 52 454 else/highpass~ 4147.56;
#X obj 52 505 else/lowpass~ 10929.8;
#X obj 52 374 else/xfade~;
#X obj 52 184 clone -s 1 6 wvtbl-voice~;
#X obj 389 252 table bell;
#X obj 310 252 soundfiler;
#X obj 146 374 sig~ 1;
#X msg 169 40 \; panic bang \;;
#X msg 140 128 clear;
#X obj 140 104 r panic;
#X msg 377 330 srate \$1;
#X msg 310 330 size \$1;
#X obj 335 276 bng 20 250 50 0 empty empty empty 0 -10 0 12 #fcfcfc #000000 #000000;
#X obj 310 304 f;
#X obj 377 305 f;
#X obj 52 158 pack f f f;
#X obj 52 131 poly 6 1;
#X obj 309 623 else/lowpass~ 2600;
#X obj 309 517 poly 3 1;
#X obj 309 569 clone -x -s 1 3 tabreader~ bell;
#X msg 433 533 clear;
#X obj 433 509 r panic;
#X obj 293 28 loadbang;
#X obj 310 363 s tabreader;
#X obj 89 271 r wvtbl-vib;
#X obj 202 402 r wvtbl-drive;
#X obj 146 349 r wvtbl-vib-mix;
#X obj 127 428 r wvtbl-hpf;
#X obj 124 479 r wvtbl-lpf;
#X obj 370 597 r smp-synth-lpf;
#X obj 293 79 else/dir;
#X msg 293 53 dir;
#X msg 310 226 read -resize \$1/bell.wav bell;
#X obj 73 559 r ir-path;
#X obj 52 211 *~ 1;
#X obj 137 845 dac~ 1 2 3 4;
#X msg 326 111 \; tabreader env auto 1 \; tabreader env atk 80 \; wavetable read \$1/wavetables/only_you \; ir-path symbol \$1/Block_Inside.wav \;;
#X obj 783 223 atoms/receive-osc;
#X obj 783 248 patch_handler;
#X obj 630 59 nbx 2 30 -1e+37 1e+37 0 0 empty current-page PAGE 0 -10 0 24 #fcfcfc #000000 #000000 0 256;
#X listbox 641 98 28 0 0 0 - observer - 16;
#X obj 638 158 atoms/send-osc navigate;
#X msg 630 130 portis_page_\$1;
#X obj 64 618 atoms/vol~ wvtbl-verb -14;
#X obj 52 649 atoms/vol~ organ -10;
#X obj 309 651 atoms/vol~ bells -2;
#X obj 704 750 atoms/vol~ vox 0;
#X obj 309 392 r seq-buttons;
#X obj 309 417 unpack;
#X obj 309 442 atoms/scale;
#X obj 309 492 pack, f 6;
#X obj 630 260 atoms/send-osc main-page 7778, f 14;
#X obj 640 184 loadbang;
#X obj 640 209 del 200;
#X msg 640 234 portis_page_1;
#X obj 348 467 * 100;
#X obj 364 57 s dir;
#X obj 309 467 + 48;
#X obj 105 52 > 0;
#X obj 105 77 * 100;
#X obj 52 402 atoms/overdrive~ -3;
#X obj 704 690 delay~;
#X obj 569 545 reverbs/reverb282~ 4000, f 18;
#X obj 621 596 hsl 70 16 -100 0 0 0 empty empty empty -2 -10 0 12 #fcfcfc #000000 #000000 0 1;
#X obj 704 721 hip~ 200;
#X msg 772 583 level -100 \, fdbk -50;
#X obj 569 519 loop~;
#X obj 783 275 atoms/send-osc param;
#X obj 704 413 adc~ 1;
#X obj 569 616 atoms/vol~ loop 0;
#X obj 780 616 loadbang;
#X msg 780 641 dry -100 \, lop 12000 \, time 400, f 10;
#X msg 772 535 level 0 \, fdbk -1;
#X obj 772 453 r voice-delay;
#X obj 772 478 tgl 20 0 empty empty empty 0 -10 0 12 #fcfcfc #000000 #000000 0 1;
#X obj 772 503 sel 1 0;
#X obj 546 431 r voice-loop;
#X obj 546 456 sel 1 0;
#X msg 569 486 clear;
#X obj 130 769 out-selector3~ organ-out-ch bells-out-ch vox-out-ch, f 14;
#X connect 0 0 2 0;
#X connect 0 1 67 0;
#X connect 1 0 28 0;
#X connect 2 0 25 0;
#X connect 3 0 11 1;
#X connect 5 0 52 0;
#X connect 7 0 5 0;
#X connect 7 0 53 0;
#X connect 8 0 3 0;
#X connect 9 0 10 0;
#X connect 10 0 7 0;
#X connect 11 0 69 0;
#X connect 12 0 43 0;
#X connect 14 0 22 0;
#X connect 14 1 23 0;
#X connect 15 0 11 2;
#X connect 17 0 25 0;
#X connect 18 0 17 0;
#X connect 19 0 32 0;
#X connect 20 0 32 0;
#X connect 21 0 22 0;
#X connect 21 0 23 0;
#X connect 22 0 20 0;
#X connect 23 0 19 0;
#X connect 24 0 12 0;
#X connect 25 0 24 0;
#X connect 25 1 24 1;
#X connect 25 2 24 2;
#X connect 26 0 54 0;
#X connect 27 0 1 0;
#X connect 27 1 1 1;
#X connect 27 2 1 2;
#X connect 28 0 26 0;
#X connect 29 0 27 0;
#X connect 30 0 29 0;
#X connect 31 0 40 0;
#X connect 33 0 8 0;
#X connect 34 0 69 1;
#X connect 35 0 15 0;
#X connect 36 0 9 1;
#X connect 37 0 10 1;
#X connect 38 0 26 1;
#X connect 39 1 45 0;
#X connect 39 1 41 0;
#X connect 39 1 65 0;
#X connect 40 0 39 0;
#X connect 41 0 14 0;
#X connect 42 0 5 0;
#X connect 43 0 11 0;
#X connect 43 0 4 0;
#X connect 46 0 47 0;
#X connect 47 0 76 0;
#X connect 48 0 51 0;
#X connect 51 0 50 0;
#X connect 51 0 60 0;
#X connect 52 0 53 0;
#X connect 53 0 88 0;
#X connect 54 0 88 1;
#X connect 55 0 88 2;
#X connect 56 0 57 0;
#X connect 57 0 58 0;
#X connect 57 1 64 0;
#X connect 58 0 66 0;
#X connect 59 0 27 0;
#X connect 61 0 62 0;
#X connect 62 0 63 0;
#X connect 63 0 60 0;
#X connect 64 0 59 1;
#X connect 66 0 59 0;
#X connect 67 0 68 0;
#X connect 68 0 2 1;
#X connect 69 0 9 0;
#X connect 70 0 73 0;
#X connect 71 0 78 0;
#X connect 72 0 78 1;
#X connect 73 0 55 0;
#X connect 74 0 70 0;
#X connect 75 0 71 0;
#X connect 77 0 70 0;
#X connect 77 0 75 0;
#X connect 78 0 73 0;
#X connect 79 0 80 0;
#X connect 80 0 70 0;
#X connect 81 0 70 0;
#X connect 82 0 83 0;
#X connect 83 0 84 0;
#X connect 84 0 81 0;
#X connect 84 1 74 0;
#X connect 85 0 86 0;
#X connect 86 0 75 0;
#X connect 86 1 87 0;
#X connect 87 0 75 0;
#X connect 88 0 44 0;
#X connect 88 1 44 1;
#X connect 88 2 44 2;
#X connect 88 3 44 3;
