#N canvas 0 36 1920 955 12;
#X obj 52 26 notein 1;
#X obj 52 103 pack, f 8;
#X obj 89 323 delread4~ vib;
#X obj 89 244 delwrite~ vib 100;
#X obj 64 643 atoms/IR~;
#X obj 1285 214 table wavetable 2051;
#X obj 52 588 *~ 1;
#X obj 89 298 atoms/lfo~ 8 2 3 2;
#X obj 52 482 else/highpass~ 4147.56;
#X obj 52 560 else/lowpass~ 10929.8;
#X obj 52 374 else/xfade~;
#X obj 52 184 clone -s 1 6 wvtbl-voice~;
#X obj 1347 267 table bell;
#X obj 1268 267 soundfiler;
#X obj 146 374 sig~ 1;
#X msg 169 40 \; panic bang \;;
#X msg 140 128 clear;
#X obj 140 104 r panic;
#X msg 1335 345 srate \$1;
#X msg 1268 345 size \$1;
#X obj 1293 291 bng 20 250 50 0 empty empty empty 0 -10 0 12 #fcfcfc #000000 #000000;
#X obj 1268 319 f;
#X obj 1335 320 f;
#X obj 52 158 pack f f f;
#X obj 52 131 poly 6 1;
#X obj 272 668 else/lowpass~ 2600;
#X obj 1251 29 loadbang;
#X obj 1268 374 s tabreader;
#X obj 89 271 r wvtbl-vib;
#X obj 202 402 r wvtbl-drive;
#X obj 146 349 r wvtbl-vib-mix;
#X obj 127 428 r wvtbl-hpf;
#X obj 124 507 r wvtbl-lpf;
#X obj 333 615 r smp-synth-lpf;
#X obj 1251 80 else/dir;
#X msg 1251 54 dir;
#X msg 1268 241 read -resize \$1/bell.wav bell;
#X obj 73 614 r ir-path;
#X obj 52 211 *~ 1;
#X obj 1722 185 atoms/receive-osc;
#X obj 1722 212 patch_handler;
#X obj 1569 51 nbx 2 30 -1e+37 1e+37 0 0 empty current-page PAGE 0 -10 0 24 #fcfcfc #000000 #000000 0 256;
#X listbox 1580 90 26 0 0 0 - observer - 16;
#X obj 1577 150 atoms/send-osc navigate;
#X msg 1569 122 portis_page_\$1;
#X obj 64 673 atoms/vol~ wvtbl-verb -14;
#X obj 52 704 atoms/vol~ organ -10;
#X obj 272 696 atoms/vol~ bells -2;
#X obj 611 55 r seq-buttons;
#X obj 1579 176 loadbang;
#X msg 1579 306 portis_page_1;
#X obj 105 52 > 0;
#X obj 105 77 * 100;
#X obj 1722 239 atoms/send-osc param;
#X obj 1722 276 r nav-buttons;
#X obj 272 587 tabreader~ bell;
#X obj 771 715 atoms/vol~ vox 0;
#X obj 771 655 delay~;
#X obj 636 578 reverbs/reverb282~ 4000, f 18;
#X obj 688 620 hsl 70 16 -100 0 0 0 empty empty empty -2 -10 0 12 #fcfcfc #000000 #000000 0 1;
#X obj 771 686 hip~ 200;
#X msg 873 495 level -100 \, fdbk -50;
#X obj 636 552 loop~;
#X obj 636 640 atoms/vol~ loop 0;
#X obj 811 567 loadbang;
#X obj 874 375 sel 1 0;
#X obj 636 496 sel 1 0;
#X msg 659 526 clear;
#X listbox 1722 301 20 0 0 0 - - - 0;
#X obj 52 402 atoms/overdrive~ -6;
#X obj 611 80 stripnote;
#X obj 611 107 sel 0 1 2;
#X obj 1299 633 table seq-lights 8;
#X obj 1180 608 array get seq-lights;
#X obj 1180 633 atoms/8bit2byte;
#X obj 631 149 tgl 20 0 empty empty empty 0 -10 0 12 #fcfcfc #000000 #000000 0 1;
#X obj 631 174 s vox-loop;
#X obj 662 149 tgl 20 0 empty empty empty 0 -10 0 12 #fcfcfc #000000 #000000 0 1;
#X obj 636 465 r vox-loop;
#X obj 874 344 r vox-delay;
#X obj 662 201 s vox-delay;
#X obj 1180 516 t b f b;
#X obj 1400 437 r vox-delay;
#X obj 1290 516 t b f b;
#X obj 1238 582 tabwrite seq-lights;
#X msg 1368 554 2;
#X msg 1331 555 1;
#X obj 1290 437 r vox-loop;
#X obj 1569 332 atoms/send-osc main-page, f 14;
#X obj 1579 226 t b b;
#X obj 1579 201 del 50;
#X obj 1579 250 del 50;
#X msg 1593 277 localhost 7778;
#X obj 1180 658 atoms/send-osc lights;
#X obj 1773 126 ctlin, f 10;
#X obj 1773 151 pack f f f;
#X obj 333 641 mtof;
#X obj 124 534 mtof;
#X obj 127 456 mtof;
#X msg 811 592 dry -100 \, lop 126 \, time 400, f 10;
#X obj 394 53 notein 17;
#X obj 394 78 stripnote;
#X msg 604 203 50 100;
#X obj 604 228 s bell-hit;
#X obj 272 558 r bell-hit;
#X obj 903 610 r vox-dry;
#X obj 288 757 s bell-vu;
#X obj 288 732 env~;
#X obj 919 667 r vox-feedback;
#X msg 919 692 fdbk \$1;
#X obj 394 103 pack f f, f 9;
#X msg 315 205 50 \$1;
#X obj 315 230 s bell-hit;
#X obj 715 782 env~;
#X obj 715 807 s vox-vu;
#X obj 87 734 env~;
#X obj 87 759 s organ-vu;
#X obj 1694 443 r bell-vu;
#X obj 1658 390 r organ-vu;
#X obj 1705 495 r vox-vu;
#X obj 592 762 s synth-vu;
#X obj 592 734 env~;
#X obj 480 739 env~;
#X obj 1733 609 r synth-vu;
#X msg 1284 112 \; pd dsp 1 \; tabreader env auto 1 \; tabreader env atk 80 \; wavetable read \$1/wavetables/only_you \; ir-path symbol \$1/Block_Inside.wav \;;
#X obj 393 870 *~ 1;
#X obj 400 180 b;
#X obj 485 173 b;
#X obj 485 229 s vox-delay;
#X obj 400 205 tgl 20 0 empty empty empty 0 -10 0 12 #fcfcfc #000000 #000000 0 1;
#X obj 400 230 s vox-loop;
#X obj 485 200 tgl 20 0 empty empty empty 0 -10 0 12 #fcfcfc #000000 #000000 0 1;
#X obj 1658 668 noteout 1;
#X obj 394 128 route 48 50 51;
#X obj 920 722 r vox-delay-lpf;
#X msg 920 747 lop \$1;
#X obj 857 442 delay 20;
#X msg 857 470 level 0 \, fdbk -0.7;
#X msg 897 416 stop;
#X obj 1658 417 segment_meter 0 7;
#X obj 1694 470 segment_meter 1 7;
#X msg 1441 561 6 \$1;
#X msg 1491 561 7 \$1;
#X obj 1441 536 * 4;
#X obj 1491 536 * 4;
#X obj 1718 578 segment_meter 3 7;
#X obj 1705 522 segment_meter 2 7;
#X obj 480 764 s gt-vu;
#X obj 1718 550 r gt-vu;
#X obj 1733 635 segment_meter 4 7;
#X obj 770 412 adc~ 1;
#X obj 450 706 adc~ 2;
#X obj 578 700 adc~ 3;
#X obj 393 895 dac~ 1;
#X obj 796 484 dac~ 2;
#X connect 0 0 1 0;
#X connect 0 1 51 0;
#X connect 1 0 24 0;
#X connect 2 0 10 1;
#X connect 4 0 45 0;
#X connect 6 0 4 0;
#X connect 6 0 46 0;
#X connect 7 0 2 0;
#X connect 8 0 9 0;
#X connect 9 0 6 0;
#X connect 10 0 69 0;
#X connect 11 0 38 0;
#X connect 13 0 21 0;
#X connect 13 1 22 0;
#X connect 14 0 10 2;
#X connect 16 0 24 0;
#X connect 17 0 16 0;
#X connect 18 0 27 0;
#X connect 19 0 27 0;
#X connect 20 0 21 0;
#X connect 20 0 22 0;
#X connect 21 0 19 0;
#X connect 22 0 18 0;
#X connect 23 0 11 0;
#X connect 24 0 23 0;
#X connect 24 1 23 1;
#X connect 24 2 23 2;
#X connect 25 0 47 0;
#X connect 26 0 35 0;
#X connect 28 0 7 0;
#X connect 29 0 69 1;
#X connect 30 0 14 0;
#X connect 31 0 98 0;
#X connect 32 0 97 0;
#X connect 33 0 96 0;
#X connect 34 1 124 0;
#X connect 34 1 36 0;
#X connect 35 0 34 0;
#X connect 36 0 13 0;
#X connect 37 0 4 0;
#X connect 38 0 10 0;
#X connect 38 0 3 0;
#X connect 39 0 40 0;
#X connect 40 0 53 0;
#X connect 41 0 44 0;
#X connect 44 0 43 0;
#X connect 44 0 88 0;
#X connect 45 0 46 0;
#X connect 46 0 115 0;
#X connect 46 0 125 0;
#X connect 47 0 107 0;
#X connect 47 0 125 0;
#X connect 48 0 70 0;
#X connect 49 0 90 0;
#X connect 50 0 88 0;
#X connect 51 0 52 0;
#X connect 52 0 1 1;
#X connect 54 0 68 0;
#X connect 55 0 25 0;
#X connect 56 0 113 0;
#X connect 56 0 125 0;
#X connect 57 0 60 0;
#X connect 58 0 63 0;
#X connect 59 0 63 1;
#X connect 60 0 56 0;
#X connect 61 0 57 0;
#X connect 62 0 58 0;
#X connect 63 0 60 0;
#X connect 64 0 99 0;
#X connect 65 0 136 0;
#X connect 65 0 61 0;
#X connect 65 1 61 0;
#X connect 65 1 138 0;
#X connect 66 0 62 0;
#X connect 66 1 67 0;
#X connect 67 0 62 0;
#X connect 69 0 8 0;
#X connect 70 0 71 0;
#X connect 71 0 102 0;
#X connect 71 1 75 0;
#X connect 71 2 77 0;
#X connect 73 0 74 0;
#X connect 74 0 93 0;
#X connect 75 0 76 0;
#X connect 77 0 80 0;
#X connect 78 0 66 0;
#X connect 79 0 65 0;
#X connect 81 0 73 0;
#X connect 81 1 84 0;
#X connect 81 2 86 0;
#X connect 82 0 83 0;
#X connect 82 0 144 0;
#X connect 83 0 73 0;
#X connect 83 1 84 0;
#X connect 83 2 85 0;
#X connect 85 0 84 1;
#X connect 86 0 84 1;
#X connect 87 0 81 0;
#X connect 87 0 143 0;
#X connect 89 0 91 0;
#X connect 89 1 92 0;
#X connect 90 0 89 0;
#X connect 91 0 50 0;
#X connect 92 0 88 1;
#X connect 94 0 95 0;
#X connect 94 1 95 1;
#X connect 94 2 95 2;
#X connect 95 0 40 0;
#X connect 96 0 25 1;
#X connect 97 0 9 1;
#X connect 98 0 8 1;
#X connect 99 0 57 0;
#X connect 100 0 101 0;
#X connect 100 1 101 1;
#X connect 101 0 110 0;
#X connect 101 1 110 1;
#X connect 102 0 103 0;
#X connect 104 0 55 0;
#X connect 107 0 106 0;
#X connect 108 0 109 0;
#X connect 109 0 57 0;
#X connect 110 0 133 0;
#X connect 111 0 112 0;
#X connect 113 0 114 0;
#X connect 115 0 116 0;
#X connect 117 0 140 0;
#X connect 118 0 139 0;
#X connect 119 0 146 0;
#X connect 121 0 120 0;
#X connect 122 0 147 0;
#X connect 123 0 149 0;
#X connect 125 0 153 0;
#X connect 126 0 129 0;
#X connect 127 0 131 0;
#X connect 129 0 130 0;
#X connect 131 0 128 0;
#X connect 133 0 111 0;
#X connect 133 1 126 0;
#X connect 133 2 127 0;
#X connect 134 0 135 0;
#X connect 135 0 57 0;
#X connect 136 0 137 0;
#X connect 137 0 57 0;
#X connect 138 0 136 0;
#X connect 139 0 132 0;
#X connect 140 0 132 0;
#X connect 141 0 132 0;
#X connect 142 0 132 0;
#X connect 143 0 141 0;
#X connect 144 0 142 0;
#X connect 145 0 132 0;
#X connect 146 0 132 0;
#X connect 148 0 145 0;
#X connect 149 0 132 0;
#X connect 150 0 62 0;
#X connect 150 0 57 0;
#X connect 150 0 154 0;
#X connect 150 0 113 0;
#X connect 151 0 122 0;
#X connect 151 0 125 0;
#X connect 152 0 121 0;
#X connect 152 0 125 0;
