#N canvas 1031 36 888 956 12;
#X obj 52 76 notein 1;
#X obj 309 544 pack f f f;
#X obj 52 103 pack, f 8;
#X obj 89 323 delread4~ vib;
#X obj 89 244 delwrite~ vib 100;
#X obj 64 588 atoms/IR~;
#X obj 327 199 table wavetable 2051;
#X obj 52 533 *~ 1;
#X obj 89 298 atoms/lfo~ 8 2 3 2;
#X obj 52 454 else/highpass~ 4147.56;
#X obj 52 505 else/lowpass~ 10929.8;
#X obj 52 374 else/xfade~;
#X obj 52 184 clone -s 1 6 wvtbl-voice~;
#X obj 389 252 table bell;
#X obj 310 252 soundfiler;
#X obj 146 374 sig~ 1;
#X obj 52 402 atoms/overdrive~;
#X msg 153 40 \; panic bang \;;
#X msg 140 128 clear;
#X obj 140 104 r panic;
#X msg 377 330 srate \$1;
#X msg 310 330 size \$1;
#X obj 335 276 bng 20 250 50 0 empty empty empty 0 -10 0 12 #fcfcfc #000000 #000000;
#X obj 310 304 f;
#X obj 377 305 f;
#X obj 52 158 pack f f f;
#X obj 52 131 poly 6 1;
#X obj 309 623 else/lowpass~ 2600;
#X obj 309 517 poly 3 1;
#X obj 309 569 clone -x -s 1 3 tabreader~ bell;
#X msg 433 533 clear;
#X obj 433 509 r panic;
#X obj 293 28 loadbang;
#X obj 310 363 s tabreader;
#X obj 89 271 r wvtbl-vib;
#X obj 181 402 r wvtbl-drive;
#X obj 146 349 r wvtbl-vib-mix;
#X obj 127 428 r wvtbl-hpf;
#X obj 124 479 r wvtbl-lpf;
#X obj 370 597 r smp-synth-lpf;
#X obj 293 79 else/dir;
#X msg 293 53 dir;
#X msg 310 226 read -resize \$1/bell.wav bell;
#X obj 73 559 r ir-path;
#X obj 52 211 *~ 1;
#X obj 580 617 else/freeze~;
#X obj 297 865 dac~ 1 2 3 4;
#X obj 570 480 atoms/overdrive~;
#X obj 570 412 adc~ 1 2 3 4;
#X obj 699 480 r vox-drive;
#X obj 645 506 r vox-hpf;
#X obj 642 557 r vox-lpf;
#X obj 296 809 +~;
#X obj 346 802 +~;
#X obj 427 802 +~;
#X obj 458 802 +~;
#X obj 684 413 r vox-in-ch;
#X obj 585 706 r vox-out-ch;
#X obj 326 689 r bells-out-ch;
#X obj 686 620 r vox-freeze-tgl;
#X obj 570 532 else/highpass~ 10;
#X obj 570 583 else/lowpass~ 21000;
#X obj 70 678 r organ-out-ch;
#N canvas 735 363 450 300 levels 0;
#X obj 29 52 inlet~;
#X obj 29 77 env~;
#X obj 100 51 inlet~;
#X obj 100 76 env~;
#X obj 179 52 inlet~;
#X obj 179 77 env~;
#X obj 250 51 inlet~;
#X obj 250 76 env~;
#X msg 29 102 ch-1 \$1;
#X msg 100 101 ch-2 \$1;
#X msg 179 102 ch-3 \$1;
#X msg 250 101 ch-4 \$1;
#X obj 138 154 atoms/send-osc param;
#X connect 0 0 1 0;
#X connect 1 0 8 0;
#X connect 2 0 3 0;
#X connect 3 0 9 0;
#X connect 4 0 5 0;
#X connect 5 0 10 0;
#X connect 6 0 7 0;
#X connect 7 0 11 0;
#X connect 8 0 12 0;
#X connect 9 0 12 0;
#X connect 10 0 12 0;
#X connect 11 0 12 0;
#X restore 398 865 pd levels;
#X msg 326 111 \; tabreader env auto 1 \; tabreader env atk 80 \; wavetable read \$1/wavetables/only_you \; ir-path symbol \$1/Block_Inside.wav \;;
#X obj 670 162 atoms/receive-osc;
#X obj 670 187 patch_handler;
#X obj 670 214 atoms/send-osc param;
#X obj 52 716 else/xgate~ 5 20 5;
#X obj 309 718 else/xgate~ 5 20 5;
#X obj 570 736 else/xgate~ 5 20 5;
#X obj 630 59 nbx 2 30 -1e+37 1e+37 0 0 empty current-page PAGE 0 -10 0 24 #fcfcfc #000000 #000000 0 256;
#X listbox 641 98 21 0 0 0 - observer - 16;
#X obj 570 649 delay~;
#X obj 691 656 r vox-delay;
#X obj 670 244 atoms/send-osc navigate;
#X msg 630 130 portis_page_\$1;
#X obj 64 618 atoms/vol~ wvtbl-verb -14;
#X obj 52 649 atoms/vol~ organ -10;
#X obj 309 651 atoms/vol~ bells -2;
#X obj 570 680 atoms/vol~ vox 0;
#X obj 570 447 else/xselect~ 4 20 1;
#X obj 309 392 r seq-buttons;
#X obj 309 417 unpack;
#X obj 309 442 atoms/scale;
#X obj 309 467 + 48;
#X obj 309 492 pack, f 6;
#X obj 630 347 atoms/send-osc main-page 7778, f 14;
#X obj 640 271 loadbang;
#X obj 640 296 del 200;
#X msg 640 321 portis_page_1;
#X connect 0 0 2 0;
#X connect 0 1 2 1;
#X connect 1 0 29 0;
#X connect 2 0 26 0;
#X connect 3 0 11 1;
#X connect 5 0 77 0;
#X connect 7 0 5 0;
#X connect 7 0 78 0;
#X connect 8 0 3 0;
#X connect 9 0 10 0;
#X connect 10 0 7 0;
#X connect 11 0 16 0;
#X connect 12 0 44 0;
#X connect 14 0 23 0;
#X connect 14 1 24 0;
#X connect 15 0 11 2;
#X connect 16 0 9 0;
#X connect 18 0 26 0;
#X connect 19 0 18 0;
#X connect 20 0 33 0;
#X connect 21 0 33 0;
#X connect 22 0 23 0;
#X connect 22 0 24 0;
#X connect 23 0 21 0;
#X connect 24 0 20 0;
#X connect 25 0 12 0;
#X connect 26 0 25 0;
#X connect 26 1 25 1;
#X connect 26 2 25 2;
#X connect 27 0 79 0;
#X connect 28 0 1 0;
#X connect 28 1 1 1;
#X connect 28 2 1 2;
#X connect 29 0 27 0;
#X connect 30 0 28 0;
#X connect 31 0 30 0;
#X connect 32 0 41 0;
#X connect 34 0 8 0;
#X connect 35 0 16 1;
#X connect 36 0 15 0;
#X connect 37 0 9 1;
#X connect 38 0 10 1;
#X connect 39 0 27 1;
#X connect 40 1 64 0;
#X connect 40 1 42 0;
#X connect 41 0 40 0;
#X connect 42 0 14 0;
#X connect 43 0 5 0;
#X connect 44 0 11 0;
#X connect 44 0 4 0;
#X connect 45 0 73 0;
#X connect 47 0 60 0;
#X connect 48 0 81 0;
#X connect 48 1 81 1;
#X connect 48 2 81 2;
#X connect 48 3 81 3;
#X connect 49 0 47 1;
#X connect 50 0 60 1;
#X connect 51 0 61 1;
#X connect 52 0 46 0;
#X connect 52 0 63 0;
#X connect 53 0 46 1;
#X connect 53 0 63 1;
#X connect 54 0 46 2;
#X connect 54 0 63 2;
#X connect 55 0 46 3;
#X connect 55 0 63 3;
#X connect 56 0 81 0;
#X connect 57 0 70 0;
#X connect 58 0 69 0;
#X connect 59 0 45 1;
#X connect 60 0 61 0;
#X connect 61 0 45 0;
#X connect 61 0 73 0;
#X connect 62 0 68 0;
#X connect 65 0 66 0;
#X connect 66 0 67 0;
#X connect 66 1 75 0;
#X connect 68 0 52 0;
#X connect 68 1 53 0;
#X connect 68 2 54 0;
#X connect 68 3 55 0;
#X connect 68 4 52 0;
#X connect 68 4 53 0;
#X connect 69 0 52 0;
#X connect 69 1 53 0;
#X connect 69 2 54 0;
#X connect 69 3 55 0;
#X connect 69 4 52 0;
#X connect 69 4 53 0;
#X connect 70 0 52 0;
#X connect 70 1 53 0;
#X connect 70 2 54 0;
#X connect 70 3 55 0;
#X connect 70 4 52 0;
#X connect 70 4 53 0;
#X connect 71 0 76 0;
#X connect 73 0 80 0;
#X connect 74 0 73 0;
#X connect 76 0 75 0;
#X connect 76 0 87 0;
#X connect 77 0 78 0;
#X connect 78 0 68 0;
#X connect 79 0 69 0;
#X connect 80 0 70 0;
#X connect 81 0 47 0;
#X connect 82 0 83 0;
#X connect 83 0 84 0;
#X connect 83 1 86 1;
#X connect 84 0 85 0;
#X connect 85 0 86 0;
#X connect 86 0 28 0;
#X connect 88 0 89 0;
#X connect 89 0 90 0;
#X connect 90 0 87 0;
