#N canvas 264 357 524 533 12;
#X obj 181 162 tgl 20 0 empty empty empty 0 -10 0 12 #fcfcfc #000000 #000000 0 1;
#X obj 204 279 metro 500;
#X obj 188 315 atoms/count 4;
#X obj 264 166 atoms/bpm;
#X obj 68 402 spigot;
#X obj 68 427 sel 0;
#X obj 68 454 atoms/once;
#X obj 264 136 inlet;
#X obj 68 479 outlet;
#X obj 181 135 inlet;
#X obj 288 483 outlet;
#X obj 188 483 outlet;
#X obj 188 457 sel 0;
#X obj 227 348 == 0;
#X obj 188 427 spigot;
#X msg 330 400 0;
#X obj 204 215 sel 1;
#X obj 181 187 t f f f;
#X obj 204 244 t b b;
#X obj 381 136 inlet;
#X text 19 9 1st inlet: start/stop \; 2nd inlet: set BPM \; 3rd inlet: beats per bar \; 1st outlet: start bang \; 2nd outlet: stop bang \; 3rd outlet: count;
#X text 224 9 grid-snapped metro \; 1 starts right away \; start bang is only sent after <length+1> beats \; 0 stops the metronome in the next 0 beat \;, f 38;
#X connect 0 0 17 0;
#X connect 1 0 2 0;
#X connect 2 0 4 0;
#X connect 2 0 10 0;
#X connect 2 0 14 0;
#X connect 3 0 1 1;
#X connect 4 0 5 0;
#X connect 5 0 6 0;
#X connect 6 0 8 0;
#X connect 7 0 3 0;
#X connect 9 0 0 0;
#X connect 12 0 11 0;
#X connect 12 0 15 0;
#X connect 13 0 14 1;
#X connect 14 0 12 0;
#X connect 15 0 1 0;
#X connect 16 0 18 0;
#X connect 17 0 4 1;
#X connect 17 1 16 0;
#X connect 17 2 13 0;
#X connect 18 0 1 0;
#X connect 18 1 2 1;
#X connect 18 1 6 1;
#X connect 19 0 2 1;
