#N canvas 736 426 573 367 12;
#X obj 180 261 +~;
#X obj 210 261 +~;
#X obj 251 261 +~;
#X obj 282 261 +~;
#X obj 20 70 else/xgate~ 5 20 5;
#X obj 180 70 else/xgate~ 5 20 5;
#X obj 341 70 else/xgate~ 5 20 5;
#X obj 143 322 outlet~;
#X obj 203 322 outlet~;
#X obj 263 322 outlet~;
#X obj 323 322 outlet~;
#X obj 19 25 inlet~;
#X obj 179 25 inlet~;
#X obj 341 24 inlet~;
#X obj 76 25 r \$1;
#X obj 247 25 r \$2;
#X obj 413 24 r \$3;
#X connect 0 0 7 0;
#X connect 1 0 8 0;
#X connect 2 0 9 0;
#X connect 3 0 10 0;
#X connect 4 0 0 0;
#X connect 4 1 1 0;
#X connect 4 2 2 0;
#X connect 4 3 3 0;
#X connect 4 4 0 0;
#X connect 4 4 1 0;
#X connect 5 0 0 0;
#X connect 5 1 1 0;
#X connect 5 2 2 0;
#X connect 5 3 3 0;
#X connect 5 4 0 0;
#X connect 5 4 1 0;
#X connect 6 0 0 0;
#X connect 6 1 1 0;
#X connect 6 2 2 0;
#X connect 6 3 3 0;
#X connect 6 4 0 0;
#X connect 6 4 1 0;
#X connect 11 0 4 0;
#X connect 12 0 5 0;
#X connect 13 0 6 0;
#X connect 14 0 4 0;
#X connect 15 0 5 0;
#X connect 16 0 6 0;
