#N canvas 690 330 678 661 12;
#X obj 40 9 inlet;
#X obj 40 34 unpack;
#X obj 36 499 *~, f 6;
#X obj 35 613 outlet~;
#X obj 276 194 line~;
#X obj 506 425 vline~;
#X obj 276 169 pack f 2;
#X obj 124 498 +~;
#X obj 506 479 max~ 200;
#X obj 39 359 line~;
#X msg 487 388 1 120;
#X obj 487 341 threshold~ 0.04 200 0.03 200, f 15;
#X obj 426 321 env~;
#X msg 426 369 \$1 10;
#X obj 426 346 / 100;
#X obj 35 537 else/lowpass~ 10 0.9;
#X obj 35 567 else/lowpass~ 10 0.9;
#X msg 589 387 0 1600;
#X obj 506 454 *~ 4000;
#X obj 39 385 else/bl.square~;
#X obj 168 142 inlet~;
#X obj 238 360 line~;
#X obj 238 385 else/bl.square~;
#X obj 483 114 r gt-synth;
#X obj 483 139 atoms/broadcast \$0;
#X obj 107 239 r \$0pitch-1;
#X obj 348 236 r \$0pitch-2;
#X obj 238 279 expr pow(2 \, $f2/12) * $f1, f 13;
#X obj 39 280 expr pow(2 \, $f2/12) * $f1, f 13;
#X obj 573 434 r \$0cutoff;
#X obj 39 328 pack f 0;
#X obj 238 330 pack f 0;
#X obj 128 331 r \$0glide;
#X obj 253 423 *~;
#X obj 300 410 r \$0osc2;
#X msg 300 435 \$1 10;
#X obj 300 460 line~;
#X obj 234 534 r \$0q;
#X connect 0 0 1 0;
#X connect 1 0 27 0;
#X connect 1 0 28 0;
#X connect 1 1 6 0;
#X connect 2 0 15 0;
#X connect 4 0 2 1;
#X connect 4 0 12 0;
#X connect 5 0 18 0;
#X connect 6 0 4 0;
#X connect 7 0 15 1;
#X connect 7 0 16 1;
#X connect 8 0 7 1;
#X connect 9 0 19 0;
#X connect 10 0 5 0;
#X connect 11 0 10 0;
#X connect 11 1 17 0;
#X connect 12 0 14 0;
#X connect 13 0 5 0;
#X connect 14 0 13 0;
#X connect 15 0 16 0;
#X connect 16 0 3 0;
#X connect 17 0 5 0;
#X connect 18 0 8 0;
#X connect 19 0 2 0;
#X connect 19 0 7 0;
#X connect 20 0 22 1;
#X connect 20 0 19 1;
#X connect 21 0 22 0;
#X connect 22 0 33 0;
#X connect 23 0 24 0;
#X connect 25 0 28 1;
#X connect 26 0 27 1;
#X connect 27 0 31 0;
#X connect 28 0 30 0;
#X connect 29 0 18 1;
#X connect 30 0 9 0;
#X connect 31 0 21 0;
#X connect 32 0 30 1;
#X connect 32 0 31 1;
#X connect 33 0 2 0;
#X connect 34 0 35 0;
#X connect 35 0 36 0;
#X connect 36 0 33 1;
#X connect 37 0 15 2;
#X connect 37 0 16 2;
