#N canvas 742 558 450 433 12;
#X obj 118 230 change;
#X obj 118 255 sel 1;
#X obj 292 230 change;
#X obj 292 255 sel 1;
#X obj 118 281 atoms/once;
#X obj 292 205 < 50;
#X obj 157 82 swap, f 6;
#X obj 157 54 unpack;
#X obj 292 292 f;
#X msg 292 317 \$1 0;
#X obj 118 308 f;
#X obj 157 25 inlet;
#X obj 183 379 outlet;
#X obj 118 333 pack f f;
#X obj 118 170 t f f;
#X obj 118 205 > 70;
#X text 169 105 trocar por rmstodb e ftom;
#X obj 157 133 + 0;
#X obj 231 135 + 0.5;
#X connect 0 0 1 0;
#X connect 1 0 4 0;
#X connect 2 0 3 0;
#X connect 3 0 8 0;
#X connect 3 0 4 1;
#X connect 4 0 10 0;
#X connect 5 0 2 0;
#X connect 6 0 17 0;
#X connect 6 1 18 0;
#X connect 7 0 6 0;
#X connect 7 1 6 1;
#X connect 8 0 9 0;
#X connect 9 0 12 0;
#X connect 10 0 8 1;
#X connect 10 0 13 0;
#X connect 11 0 7 0;
#X connect 13 0 12 0;
#X connect 14 0 15 0;
#X connect 14 1 13 1;
#X connect 15 0 0 0;
#X connect 17 0 5 0;
#X connect 17 0 14 0;
#X connect 18 0 10 1;
