#N canvas 736 399 450 353 12;
#X obj 316 39 block~ 1 1 1;
#X obj 33 127 inlet~;
#X obj 126 284 outlet~;
#X obj 244 243 r kp-tail;
#X obj 182 77 r kp-tone;
#X floatatom 182 143 5 0 0 0 - - - 0;
#X obj 182 167 mtof;
#X obj 182 192 expr 1000 / $f1;
#X floatatom 244 269 5 0 0 0 - - - 0;
#X obj 257 98 loadbang;
#X msg 257 123 25;
#X obj 126 259 *~ 0.92;
#X obj 33 159 delwrite~ \$0kp 200;
#X obj 126 234 delread4~ \$0kp;
#X connect 1 0 12 0;
#X connect 3 0 8 0;
#X connect 4 0 5 0;
#X connect 5 0 6 0;
#X connect 6 0 7 0;
#X connect 7 0 13 0;
#X connect 8 0 11 1;
#X connect 9 0 10 0;
#X connect 10 0 5 0;
#X connect 11 0 2 0;
#X connect 11 0 12 0;
#X connect 13 0 11 0;
