#N canvas 299 263 518 307 12;
#N canvas 737 460 450 250 (subpatch) 0;
#X array drawbars 12 float 3;
#A 0 0.404762 0.27381 0.416667 0.22619 0.0238103 0.130952 0 0.238095 0.0238096 0.166667 0 0.130952;
#X coords 0 1 12 0 465 62 1 0 0;
#X restore 18 31 graph;
#X obj 301 165 array get drawbars;
#X obj 224 161 bng 20 250 50 0 empty empty empty 0 -10 0 12 #fcfcfc #000000 #000000;
#X obj 301 218 list trim;
#X msg 224 225 normalize;
#X obj 224 186 t b b;
#X obj 301 193 list prepend sinesum 2051;
#X msg 301 139 0;
#X obj 301 245 s \$0wavetable;
#X obj 18 110 table \$0wavetable 2051;
#X obj 18 204 expr sym("\$0wavetable");
#X obj 18 179 bng 20 250 50 0 empty empty empty 0 -10 0 12 #fcfcfc #000000 #000000;
#X obj 18 229 outlet;
#X connect 1 0 6 0;
#X connect 2 0 5 0;
#X connect 3 0 8 0;
#X connect 4 0 8 0;
#X connect 5 0 4 0;
#X connect 5 1 7 0;
#X connect 6 0 3 0;
#X connect 7 0 1 0;
#X connect 10 0 12 0;
#X connect 11 0 10 0;
