#N canvas 365 541 517 450 12;
#X obj 187 34 inlet;
#X obj 43 54 unpack;
#X obj 43 205 phasor~;
#X obj 43 230 *~;
#X obj 43 313 tabread4~ \$1;
#X obj 43 338 *~;
#X obj 43 363 outlet~;
#X obj 43 179 line~;
#X obj 43 153 pack f 0;
#X obj 344 106 atoms/store \$0;
#X obj 236 135 b;
#X obj 236 160 v size\$0;
#X obj 236 185 - 2;
#X obj 236 210 change;
#X obj 43 255 +~ 1;
#X obj 388 146 loadbang;
#X msg 388 174 48;
#X obj 388 199 v root\$0;
#X msg 111 185 0;
#X obj 388 224 v size\$0;
#X obj 388 249 v srate\$0;
#X obj 43 86 expr pow(2 \, ($f1 - root\$0)/12) * (1 / (size\$0 / srate\$0)), f 32;
#X obj 111 135 > 0;
#X obj 111 160 sel 1;
#X obj 316 82 atoms/broadcast \$0;
#N canvas 617 526 417 438 auto 0;
#X obj 80 47 inlet;
#X obj 133 290 delay;
#X msg 133 315 0;
#X msg 165 259 stop;
#X obj 80 76 atoms/AB;
#X obj 80 367 outlet;
#X obj 133 47 r \$0auto;
#X msg 80 108 \$2;
#X obj 133 109 stripnote;
#X obj 133 137 t f b;
#X obj 133 165 expr (size\$0 / srate\$0 * 1000) / pow(2 \, ($f1 - root\$0)/12), f 32;
#X obj 133 214 * 1;
#X connect 0 0 4 0;
#X connect 1 0 2 0;
#X connect 2 0 5 0;
#X connect 3 0 1 0;
#X connect 4 0 7 0;
#X connect 4 1 8 0;
#X connect 6 0 4 1;
#X connect 7 0 5 0;
#X connect 8 0 9 0;
#X connect 8 1 5 0;
#X connect 9 0 10 0;
#X connect 9 1 3 0;
#X connect 10 0 11 0;
#X connect 11 0 1 0;
#X restore 187 238 pd auto;
#X obj 316 55 route env;
#X obj 202 285 r \$0atk;
#X obj 259 285 r \$0dec;
#X obj 317 287 r \$0sus;
#X obj 375 287 r \$0rel;
#X obj 187 319 else/adsr~ 0 0 1 0;
#X obj 316 28 r tabreader;
#X connect 0 0 1 0;
#X connect 0 0 25 0;
#X connect 1 0 21 0;
#X connect 1 1 10 0;
#X connect 1 1 22 0;
#X connect 2 0 3 0;
#X connect 3 0 14 0;
#X connect 4 0 5 0;
#X connect 5 0 6 0;
#X connect 7 0 2 0;
#X connect 8 0 7 0;
#X connect 10 0 11 0;
#X connect 11 0 12 0;
#X connect 12 0 13 0;
#X connect 13 0 3 1;
#X connect 14 0 4 0;
#X connect 15 0 16 0;
#X connect 16 0 17 0;
#X connect 18 0 2 1;
#X connect 21 0 8 0;
#X connect 22 0 23 0;
#X connect 23 0 18 0;
#X connect 25 0 31 0;
#X connect 26 0 24 0;
#X connect 26 1 9 0;
#X connect 27 0 31 1;
#X connect 28 0 31 2;
#X connect 29 0 31 3;
#X connect 30 0 31 4;
#X connect 31 0 5 1;
#X connect 32 0 26 0;
