#N canvas 735 363 532 501 12;
#X obj 86 244 table rip_G;
#X obj 52 382 soundfiler;
#X msg 52 301 read -resize \$1/the_rip_G.wav rip_G, f 23;
#X obj 246 145 bng 20 250 50 0 empty empty empty 0 -10 0 12 #fcfcfc #000000 #000000;
#X obj 246 170 array size rip_G;
#X obj 246 195 t f f;
#X obj 246 250 pack;
#X msg 246 275 0 \, \$1 \$2;
#X obj 246 300 vline~;
#X obj 246 325 tabread4~ rip_G;
#X obj 276 221 / 48;
#X obj 53 272 else/dir;
#X msg 53 246 dir;
#X obj 86 224 table rip_A;
#X msg 61 341 read -resize \$1/the_rip_A.wav rip_A, f 23;
#X obj 376 145 bng 20 250 50 0 empty empty empty 0 -10 0 12 #fcfcfc #000000 #000000;
#X obj 376 195 t f f;
#X obj 376 250 pack;
#X msg 376 275 0 \, \$1 \$2;
#X obj 376 300 vline~;
#X obj 406 221 / 48;
#X obj 376 170 array size rip_A;
#X obj 376 325 tabread4~ rip_A;
#X obj 268 26 tgl 20 0 empty empty empty 0 -10 0 12 #fcfcfc #000000 #000000 0 1;
#X obj 268 51 metro 500;
#X obj 285 391 output~;
#X floatatom 360 27 5 0 0 0 - - - 0;
#X obj 360 51 atoms/bpm;
#X obj 268 77 atoms/count 32;
#X obj 298 104 moses 16;
#X obj 293 136 moses 24;
#X connect 2 0 1 0;
#X connect 3 0 4 0;
#X connect 4 0 5 0;
#X connect 5 0 6 0;
#X connect 5 1 10 0;
#X connect 6 0 7 0;
#X connect 7 0 8 0;
#X connect 8 0 9 0;
#X connect 9 0 25 0;
#X connect 10 0 6 1;
#X connect 11 1 2 0;
#X connect 11 1 14 0;
#X connect 12 0 11 0;
#X connect 14 0 1 0;
#X connect 15 0 21 0;
#X connect 16 0 17 0;
#X connect 16 1 20 0;
#X connect 17 0 18 0;
#X connect 18 0 19 0;
#X connect 19 0 22 0;
#X connect 20 0 17 1;
#X connect 21 0 16 0;
#X connect 22 0 25 0;
#X connect 23 0 24 0;
#X connect 24 0 28 0;
#X connect 26 0 27 0;
#X connect 27 0 24 1;
#X connect 28 0 29 0;
#X connect 29 0 3 0;
#X connect 29 1 30 0;
#X connect 30 0 15 0;
#X connect 30 1 3 0;
