#N canvas 904 368 346 330 12;
#X obj 121 36 inlet;
#X obj 155 210 *~;
#X obj 155 237 outlet~;
#X obj 121 61 unpack;
#X obj 121 91 mtof;
#X obj 121 141 line~;
#X obj 174 88 else/adsr~;
#X obj 121 169 tabosc4~ wavetable;
#X obj 195 34 r panic;
#X msg 195 59 0;
#X obj 121 116 pack f 0;
#X connect 0 0 3 0;
#X connect 1 0 2 0;
#X connect 3 0 4 0;
#X connect 3 1 6 0;
#X connect 4 0 10 0;
#X connect 5 0 7 0;
#X connect 6 0 1 1;
#X connect 7 0 1 0;
#X connect 8 0 9 0;
#X connect 9 0 6 0;
#X connect 10 0 5 0;
