#N canvas 784 690 470 337 12;
#X obj 62 13 inlet~;
#X obj 100 292 outlet~;
#X obj 97 68 delwrite~ \$0dly 2000;
#X obj 159 177 delread4~ \$0dly;
#X obj 324 174 atoms/limit~ 94 8;
#N canvas 739 543 450 300 filtering 0;
#X obj 81 32 inlet~;
#X obj 81 72 hip~;
#X obj 81 97 hip~;
#X obj 81 202 outlet~;
#X obj 188 102 r \$0lop;
#X obj 188 77 r \$0hip;
#X obj 81 122 lop~ 21000;
#X obj 81 147 lop~ 21000;
#X connect 0 0 1 0;
#X connect 1 0 2 0;
#X connect 2 0 6 0;
#X connect 4 0 6 1;
#X connect 4 0 7 1;
#X connect 5 0 1 1;
#X connect 5 0 2 1;
#X connect 6 0 7 0;
#X connect 7 0 3 0;
#X restore 159 202 pd filtering;
#X obj 101 39 atoms/broadcast \$0;
#X obj 159 101 r \$0time;
#X obj 159 126 sig~;
#N canvas 420 709 535 278 modulation 1;
#X obj 38 61 inlet~;
#X obj 38 142 outlet~;
#X obj 164 43 r \$0mod.depth;
#X obj 294 54 r \$0mod.rate;
#X msg 294 79 rate \$1;
#X obj 199 131 atoms/lfo~ 1.2 0 0 2;
#X msg 164 68 range 0 \$1;
#X obj 38 117 +~;
#X connect 0 0 7 0;
#X connect 2 0 6 0;
#X connect 3 0 4 0;
#X connect 4 0 5 0;
#X connect 5 0 7 1;
#X connect 6 0 5 0;
#X connect 7 0 1 0;
#X restore 159 151 pd modulation;
#X obj 159 236 atoms/vol~ \$0level -100, f 12;
#X obj 62 237 atoms/vol~ \$0dry 0, f 10;
#X obj 324 133 atoms/vol~ \$0fdbk -100, f 11;
#X connect 0 0 2 0;
#X connect 0 0 11 0;
#X connect 0 1 6 0;
#X connect 3 0 5 0;
#X connect 4 0 2 0;
#X connect 5 0 10 0;
#X connect 5 0 12 0;
#X connect 7 0 8 0;
#X connect 8 0 9 0;
#X connect 9 0 3 0;
#X connect 10 0 1 0;
#X connect 11 0 1 0;
#X connect 12 0 4 0;
