#N canvas 587 311 745 404 12;
#X obj 27 183 inlet~;
#X obj 27 238 clone 6 partial-voice~, f 14;
#N canvas 1035 372 450 300 reblock 0;
#X obj 20 57 inlet~;
#X obj 20 160 outlet;
#X obj 20 100 sigmund~ -npts 4096 -hop 256 -npeak 6 tracks, f 29;
#X obj 299 36 block~ 64 1 0.5;
#X connect 0 0 2 0;
#X connect 2 0 1 0;
#X restore 27 211 pd reblock;
#X obj 27 281 outlet~;
#X floatatom 93 119 5 0 0 0 - - - 0;
#X obj 93 143 sig~ 0.5;
#X floatatom 462 49 5 0 0 0 - - - 0;
#X msg 462 75 osc2 \$1;
#X text 131 118 pw duty;
#X floatatom 532 49 5 0 0 0 - - - 0;
#X floatatom 541 123 5 0 0 0 - - - 0;
#X floatatom 451 123 5 0 0 0 - - - 0;
#X msg 532 75 glide \$1;
#X msg 451 149 pitch-1 \$1;
#X msg 541 149 pitch-2 \$1;
#X msg 574 247 cutoff \$1;
#X floatatom 506 328 5 0 0 0 - - - 0;
#X msg 506 352 q \$1;
#X obj 480 249 s gt-synth;
#X obj 122 192 atoms/modulate~, f 9;
#X obj 231 142 else/tri~ 1.1;
#X obj 231 172 *~ 0.3;
#X floatatom 231 115 5 0 0 0 - - - 0;
#X obj 577 177 hsl 150 15 0 136 0 0 empty empty empty -2 -10 0 12 #fcfcfc #000000 #000000 0 1;
#X obj 574 197 mtof;
#X floatatom 574 222 11 0 0 0 - - - 0;
#X obj 624 41 inlet;
#X obj 624 66 switch~;
#X obj 93 90 r gt-synth-pw;
#X obj 231 62 r gt-synth-pwm;
#X obj 292 171 r gt-synth-pwm-rate;
#X obj 575 280 hsl 150 15 0 136 0 0 empty empty empty -2 -10 0 12 #fcfcfc #000000 #000000 0 1;
#X obj 572 300 mtof;
#X msg 572 355 f.env \$1;
#X floatatom 572 326 11 0 0 0 - - - 0;
#X msg 275 115 0;
#X floatatom 292 198 5 0 0 0 - - - 0;
#X obj 275 91 sel 0;
#X connect 0 0 2 0;
#X connect 1 0 3 0;
#X connect 2 0 1 0;
#X connect 4 0 5 0;
#X connect 5 0 19 0;
#X connect 6 0 7 0;
#X connect 7 0 18 0;
#X connect 9 0 12 0;
#X connect 10 0 14 0;
#X connect 11 0 13 0;
#X connect 12 0 18 0;
#X connect 13 0 18 0;
#X connect 14 0 18 0;
#X connect 15 0 18 0;
#X connect 16 0 17 0;
#X connect 17 0 18 0;
#X connect 19 0 1 1;
#X connect 20 0 21 0;
#X connect 21 0 19 1;
#X connect 22 0 20 0;
#X connect 23 0 24 0;
#X connect 24 0 25 0;
#X connect 25 0 15 0;
#X connect 26 0 27 0;
#X connect 28 0 4 0;
#X connect 29 0 22 0;
#X connect 29 0 37 0;
#X connect 30 0 36 0;
#X connect 31 0 32 0;
#X connect 32 0 34 0;
#X connect 33 0 18 0;
#X connect 34 0 33 0;
#X connect 35 0 20 1;
#X connect 36 0 21 1;
#X connect 37 0 35 0;
