#N canvas 2 36 959 956 12;
#X obj 210 130 guitar-synth~;
#X obj 73 614 else/downsample~;
#X obj 73 709 delay~;
#X obj 101 403 atoms/lfo~ 1.2 4 8 0;
#X obj 88 127 + 1;
#X obj 73 330 atoms/overdrive~;
#X obj 244 310 r drive;
#X obj 217 454 r vibrato;
#X obj 73 574 atoms/modulate~;
#X obj 232 491 r trem-rate;
#X msg 232 516 rate \$1;
#X obj 329 493 r trem-strength;
#X msg 329 518 range \$1 0;
#X msg 279 373 wave \$1;
#X msg 264 428 rate \$1;
#X msg 345 403 range 2 \$1;
#X obj 159 714 r delay;
#X obj 248 607 r downsamp;
#X obj 249 670 r downsamp-interp;
#X msg 249 695 interp \$1;
#X obj 385 586 loadbang;
#X obj 385 611 samplerate~;
#X obj 248 636 expr $f2 - 421 * $f1;
#X obj 73 668 atoms/vol~ master 0;
#X obj 526 226 atoms/receive-osc;
#X obj 526 278 atoms/send-osc param;
#X obj 499 123 nbx 2 30 -1e+37 1e+37 0 0 empty current-page PAGE 0 -10 0 24 #fcfcfc #000000 #000000 0 256;
#X listbox 510 162 19 0 0 0 - observer - 16;
#X obj 524 306 atoms/send-osc navigate;
#X obj 499 411 atoms/send-osc main-page 7778, f 14;
#X obj 507 333 loadbang;
#X obj 507 358 del 200;
#X msg 499 194 fusion_page_\$1;
#X msg 507 383 fusion_page_1;
#X obj 73 43 adc~ 4;
#X obj 74 158 else/xselect~ 2 20 1;
#X obj 174 73 tgl 20 0 empty empty empty 0 -10 0 12 #fcfcfc #000000 #000000 0 1;
#X obj 499 867 s delay;
#X msg 523 777 level -3 \, fdbk -24 \, time \$1, f 10;
#X floatatom 522 697 10 0 0 0 - - - 0;
#X obj 522 721 atoms/bpm;
#X obj 522 746 / 3;
#X obj 73 839 dac~ 4;
#X obj 140 828 output~;
#X obj 176 494 r trem;
#X obj 175 544 atoms/lfo~ 6 0 0 0;
#X msg 739 537 \; trem-strength 0 \;;
#X obj 101 378 delwrite~ mod 100;
#X obj 101 428 delread4~ mod;
#X obj 279 348 r mod-shape;
#X obj 264 403 r mod-rate;
#X obj 526 251 patch_handler fusion;
#X obj 296 784 else/meter~;
#X obj 143 778 else/fdn.rev~;
#X obj 96 270 + 1;
#X obj 74 299 else/xselect~ 2 20 1;
#X obj 325 219 tgl 20 0 empty empty empty 0 -10 0 12 #fcfcfc #000000 #000000 0 1;
#X obj 325 192 r pitchshift-sw;
#X obj 174 48 r synth-sw;
#X floatatom 243 200 5 0 0 0 - - - 0;
#X obj 345 378 r mod-depth;
#X obj 72 463 else/xfade~ 1 -1;
#X msg 740 464 \; trem-rate 8 \; trem-strength -1 \; trem wave 0;
#X msg 396 744 level -18 \, fdbk -18 \, time 450 \, mod.rate 1.2 \, mod.depth 5 \, hip 90, f 13;
#X obj 208 272 atoms/pitchshift~ -4;
#X msg 755 119 \; drive 20 \; master 0 \; synth-sw 0 \; vibrato -1 \;;
#X msg 755 289 \; drive 20 \; master 0 \; synth-sw 0 \; vibrato -1 \;;
#X msg 754 214 \; drive 0 \; master 6 \; synth-sw 1 \;;
#X msg 744 380 \; drive 40 \; trem-strength -0.88 \;;
#X obj 13 526 else/highpass~ 200 0.9;
#X connect 0 0 35 1;
#X connect 1 0 23 0;
#X connect 2 0 42 0;
#X connect 2 0 52 0;
#X connect 2 0 53 0;
#X connect 2 0 43 0;
#X connect 3 0 48 0;
#X connect 4 0 35 0;
#X connect 5 0 47 0;
#X connect 5 0 61 0;
#X connect 6 0 5 1;
#X connect 7 0 61 2;
#X connect 8 0 1 0;
#X connect 9 0 10 0;
#X connect 10 0 45 0;
#X connect 11 0 12 0;
#X connect 12 0 45 0;
#X connect 13 0 3 0;
#X connect 14 0 3 0;
#X connect 15 0 3 0;
#X connect 16 0 2 0;
#X connect 17 0 22 0;
#X connect 18 0 19 0;
#X connect 19 0 1 0;
#X connect 20 0 21 0;
#X connect 21 0 22 1;
#X connect 22 0 1 1;
#X connect 23 0 2 0;
#X connect 24 0 51 0;
#X connect 26 0 32 0;
#X connect 30 0 31 0;
#X connect 31 0 33 0;
#X connect 32 0 28 0;
#X connect 32 0 29 0;
#X connect 33 0 29 0;
#X connect 34 0 35 0;
#X connect 34 0 0 0;
#X connect 35 0 55 0;
#X connect 35 0 64 0;
#X connect 36 0 4 0;
#X connect 36 0 0 1;
#X connect 38 0 37 0;
#X connect 39 0 40 0;
#X connect 40 0 41 0;
#X connect 41 0 38 0;
#X connect 44 0 45 0;
#X connect 45 0 8 1;
#X connect 48 0 61 1;
#X connect 49 0 13 0;
#X connect 50 0 14 0;
#X connect 51 0 25 0;
#X connect 54 0 55 0;
#X connect 55 0 5 0;
#X connect 56 0 54 0;
#X connect 56 0 64 3;
#X connect 57 0 56 0;
#X connect 58 0 36 0;
#X connect 59 0 64 2;
#X connect 60 0 15 0;
#X connect 61 0 69 0;
#X connect 63 0 37 0;
#X connect 64 0 55 1;
#X connect 69 0 8 0;
