#N canvas 643 181 705 683 12;
#X obj 179 150 guitar-synth~;
#X obj 42 494 else/downsample~;
#X obj 42 589 delay~;
#X obj 79 280 atoms/lfo~ 1.2 4 8 0;
#X obj 79 255 delwrite~ vib 100;
#X obj 79 305 delread4~ vib;
#X obj 49 104 r gt-synth-switch;
#X obj 49 148 + 1;
#X obj 42 175 else/xselect~ 2 20 1;
#X obj 144 424 atoms/lfo~ 6 0 0 0;
#X obj 42 210 atoms/overdrive~;
#X obj 213 190 r drive;
#X obj 191 332 r vibrato;
#X obj 42 454 atoms/modulate~;
#X obj 201 371 r trem-rate;
#X msg 201 396 rate \$1;
#X obj 298 373 r trem-strength;
#X msg 298 398 range \$1 0;
#X obj 293 423 r trem-wave;
#X obj 253 226 r vib-wave;
#X msg 253 251 wave \$1;
#X obj 238 281 r vib-rate;
#X msg 238 306 rate \$1;
#X obj 319 256 r vib-strength;
#X msg 319 281 range 2 \$1;
#X obj 128 594 r delay;
#X obj 216 487 r downsamp;
#X obj 218 550 r downsamp-interp;
#X msg 218 575 interp \$1;
#X obj 354 466 loadbang;
#X obj 354 491 samplerate~;
#X obj 217 516 expr $f2 - 421 * $f1;
#X obj 42 548 atoms/vol~ master 0;
#X obj 42 334 else/xfade~ 2 10 1;
#X obj 42 63 adc~ 1;
#X obj 43 638 dac~ 1;
#X obj 495 156 atoms/receive-osc;
#X obj 495 181 patch_handler;
#X obj 495 208 atoms/send-osc param;
#X obj 468 53 nbx 2 30 -1e+37 1e+37 0 0 empty current-page PAGE 0 -10 0 24 #fcfcfc #000000 #000000 0 256;
#X listbox 479 92 19 0 0 0 - observer - 16;
#X obj 493 236 atoms/send-osc navigate;
#X obj 468 341 atoms/send-osc main-page 7778, f 14;
#X obj 476 263 loadbang;
#X obj 476 288 del 200;
#X msg 468 124 fusion_page_\$1;
#X msg 476 313 fusion_page_1;
#X connect 0 0 8 1;
#X connect 1 0 32 0;
#X connect 2 0 35 0;
#X connect 3 0 5 0;
#X connect 5 0 33 1;
#X connect 6 0 7 0;
#X connect 6 0 0 1;
#X connect 7 0 8 0;
#X connect 8 0 10 0;
#X connect 9 0 13 1;
#X connect 10 0 4 0;
#X connect 10 0 33 0;
#X connect 11 0 10 1;
#X connect 12 0 33 2;
#X connect 13 0 1 0;
#X connect 14 0 15 0;
#X connect 15 0 9 0;
#X connect 16 0 17 0;
#X connect 17 0 9 0;
#X connect 18 0 9 1;
#X connect 19 0 20 0;
#X connect 20 0 3 0;
#X connect 21 0 22 0;
#X connect 22 0 3 0;
#X connect 23 0 24 0;
#X connect 24 0 3 0;
#X connect 25 0 2 0;
#X connect 26 0 31 0;
#X connect 27 0 28 0;
#X connect 28 0 1 0;
#X connect 29 0 30 0;
#X connect 30 0 31 1;
#X connect 31 0 1 1;
#X connect 32 0 2 0;
#X connect 33 0 13 0;
#X connect 34 0 0 0;
#X connect 34 0 8 0;
#X connect 36 0 37 0;
#X connect 37 0 38 0;
#X connect 37 1 41 0;
#X connect 39 0 45 0;
#X connect 43 0 44 0;
#X connect 44 0 46 0;
#X connect 45 0 41 0;
#X connect 45 0 42 0;
#X connect 46 0 42 0;
