#N canvas 1040 297 694 694 12;
#X obj 146 130 guitar-synth~;
#X obj 42 494 else/downsample~;
#X obj 42 589 delay~;
#X obj 79 280 atoms/lfo~ 1.2 4 8 0;
#X obj 79 255 delwrite~ vib 100;
#X obj 79 305 delread4~ vib;
#X obj 113 97 r gt-synth-switch;
#X obj 49 148 + 1;
#X obj 42 175 else/xselect~ 2 20 1;
#X obj 144 424 atoms/lfo~ 6 0 0 0;
#X obj 42 210 atoms/overdrive~;
#X obj 213 190 r drive;
#X obj 191 332 r vibrato;
#X obj 42 454 atoms/modulate~;
#X obj 201 371 r trem-rate;
#X msg 201 396 rate \$1;
#X obj 298 373 r trem-strength;
#X msg 298 398 range \$1 0;
#X obj 293 423 r trem-wave;
#X obj 253 226 r vib-wave;
#X msg 253 251 wave \$1;
#X obj 238 281 r vib-rate;
#X msg 238 306 rate \$1;
#X obj 319 256 r vib-strength;
#X msg 319 281 range 2 \$1;
#X obj 128 594 r delay;
#X obj 216 487 r downsamp;
#X obj 370 61 patch_handler;
#X obj 370 32 atoms/receive-osc;
#X obj 370 86 atoms/send-osc param;
#X obj 370 113 atoms/send-osc navigate;
#X obj 349 561 r downsamp-interp;
#X msg 349 586 interp \$1;
#X obj 354 466 loadbang;
#X obj 354 491 samplerate~;
#X obj 217 516 expr $f2 - 421 * $f1;
#X obj 461 156 r current-page;
#X msg 461 181 fusion_page_\$1;
#X obj 42 548 atoms/vol~ master 0;
#X obj 42 334 else/xfade~ 2 10 1;
#X obj 42 23 adc~ 1;
#X obj 43 648 dac~ 1;
#X msg 478 434 \; pd dsp 1;
#X listbox 511 275 20 0 0 0 - observer - 0;
#X obj 144 43 dac~;
#X floatatom 210 73 5 0 0 0 - - - 0;
#X connect 0 0 8 1;
#X connect 1 0 38 0;
#X connect 2 0 41 0;
#X connect 3 0 5 0;
#X connect 5 0 39 1;
#X connect 6 0 7 0;
#X connect 6 0 0 1;
#X connect 6 0 45 0;
#X connect 7 0 8 0;
#X connect 8 0 10 0;
#X connect 8 0 44 0;
#X connect 9 0 13 1;
#X connect 10 0 4 0;
#X connect 10 0 39 0;
#X connect 11 0 10 1;
#X connect 12 0 39 2;
#X connect 13 0 1 0;
#X connect 14 0 15 0;
#X connect 15 0 9 0;
#X connect 16 0 17 0;
#X connect 17 0 9 0;
#X connect 18 0 9 1;
#X connect 19 0 20 0;
#X connect 20 0 3 0;
#X connect 21 0 22 0;
#X connect 22 0 3 0;
#X connect 23 0 24 0;
#X connect 24 0 3 0;
#X connect 25 0 2 0;
#X connect 26 0 35 0;
#X connect 27 0 29 0;
#X connect 27 1 30 0;
#X connect 28 0 27 0;
#X connect 31 0 32 0;
#X connect 32 0 1 0;
#X connect 33 0 34 0;
#X connect 33 0 42 0;
#X connect 34 0 35 1;
#X connect 35 0 1 1;
#X connect 36 0 37 0;
#X connect 37 0 30 0;
#X connect 38 0 2 0;
#X connect 39 0 13 0;
#X connect 40 0 0 0;
#X connect 40 0 8 0;
