#N canvas 19 81 759 910 12;
#X obj 57 31 inlet;
#X obj 380 51 unpack;
#X obj 50 700 *~, f 6;
#X obj 49 814 outlet~;
#X obj 419 420 line~;
#X obj 419 604 vline~;
#X obj 419 395 pack f 2;
#X obj 153 677 +~;
#X obj 419 658 max~ 200;
#X obj 51 368 line~;
#X obj 49 738 else/lowpass~ 10 0.9;
#X obj 49 768 else/lowpass~ 10 0.9;
#X obj 51 453 else/bl.square~;
#X obj 131 392 inlet~;
#X obj 226 378 line~;
#X obj 208 455 else/bl.square~;
#X obj 528 65 r gt-synth;
#X obj 528 90 atoms/broadcast \$0;
#X obj 139 211 r \$0pitch-1;
#X obj 324 203 r \$0pitch-2;
#X obj 236 230 expr pow(2 \, $f2/12) * $f1, f 13;
#X obj 51 237 expr pow(2 \, $f2/12) * $f1, f 13;
#X obj 506 638 r \$0cutoff;
#X obj 51 345 pack f 0;
#X obj 226 353 pack f 0;
#X obj 130 292 r \$0glide;
#X obj 182 536 *~;
#X obj 233 485 r \$0osc2;
#X msg 233 510 \$1 10;
#X obj 233 535 line~;
#X obj 216 748 r \$0q;
#X obj 419 633 *~ 7000;
#X obj 50 555 +~;
#X obj 506 606 r \$0f.env;
#X obj 419 456 threshold~ 0.02 200 0.01 200, f 15;
#X obj 445 503 r \$0f.env.atk;
#X obj 555 503 r \$0f.env.rel;
#X obj 419 541 120;
#X obj 521 538 2400;
#X msg 419 567 stop \, 1 \$1;
#X msg 521 566 stop \, 0 \$1;
#X connect 0 0 1 0;
#X connect 1 0 20 0;
#X connect 1 0 21 0;
#X connect 1 1 6 0;
#X connect 2 0 10 0;
#X connect 4 0 2 1;
#X connect 4 0 34 0;
#X connect 5 0 31 0;
#X connect 6 0 4 0;
#X connect 7 0 10 1;
#X connect 7 0 11 1;
#X connect 8 0 7 1;
#X connect 9 0 12 0;
#X connect 10 0 11 0;
#X connect 11 0 3 0;
#X connect 12 0 7 0;
#X connect 12 0 32 0;
#X connect 13 0 15 1;
#X connect 13 0 12 1;
#X connect 14 0 15 0;
#X connect 15 0 26 0;
#X connect 16 0 17 0;
#X connect 18 0 21 1;
#X connect 19 0 20 1;
#X connect 20 0 24 0;
#X connect 21 0 23 0;
#X connect 22 0 8 1;
#X connect 23 0 9 0;
#X connect 24 0 14 0;
#X connect 25 0 23 1;
#X connect 25 0 24 1;
#X connect 26 0 32 1;
#X connect 27 0 28 0;
#X connect 28 0 29 0;
#X connect 29 0 26 1;
#X connect 30 0 10 2;
#X connect 30 0 11 2;
#X connect 31 0 8 0;
#X connect 32 0 2 0;
#X connect 33 0 31 1;
#X connect 34 0 37 0;
#X connect 34 1 38 0;
#X connect 35 0 37 1;
#X connect 36 0 38 1;
#X connect 37 0 39 0;
#X connect 38 0 40 0;
#X connect 39 0 5 0;
#X connect 40 0 5 0;
